<svg width="24" height="25" viewBox="0 0 24 25" fill="none" xmlns="http://www.w3.org/2000/svg">
<path d="M0 4.25C0 3.83579 0.335786 3.5 0.75 3.5H3C3.34415 3.5 3.64414 3.73422 3.72761 4.0681L4.33558 6.5H21.75C21.981 6.5 22.199 6.6064 22.3412 6.78844C22.4833 6.97048 22.5336 7.20785 22.4776 7.4319L20.2276 16.4319C20.1441 16.7658 19.8442 17 19.5 17H6C5.65585 17 5.35586 16.7658 5.27239 16.4319L2.41442 5H0.75C0.335786 5 0 4.66421 0 4.25ZM4.71058 8L6.58558 15.5H18.9144L20.7894 8H4.71058ZM7.5 20C6.67157 20 6 20.6716 6 21.5C6 22.3284 6.67157 23 7.5 23C8.32843 23 9 22.3284 9 21.5C9 20.6716 8.32843 20 7.5 20ZM4.5 21.5C4.5 19.8431 5.84315 18.5 7.5 18.5C9.15685 18.5 10.5 19.8431 10.5 21.5C10.5 23.1569 9.15685 24.5 7.5 24.5C5.84315 24.5 4.5 23.1569 4.5 21.5ZM18 20C17.1716 20 16.5 20.6716 16.5 21.5C16.5 22.3284 17.1716 23 18 23C18.8284 23 19.5 22.3284 19.5 21.5C19.5 20.6716 18.8284 20 18 20ZM15 21.5C15 19.8431 16.3431 18.5 18 18.5C19.6569 18.5 21 19.8431 21 21.5C21 23.1569 19.6569 24.5 18 24.5C16.3431 24.5 15 23.1569 15 21.5Z" fill="black"/>
</svg>
