<svg width="24" height="25" viewBox="0 0 24 25" fill="none" xmlns="http://www.w3.org/2000/svg">
<path fill-rule="evenodd" clip-rule="evenodd" d="M3.75 17.75C3.75 17.3358 4.08579 17 4.5 17H19.5C19.9142 17 20.25 17.3358 20.25 17.75C20.25 18.1642 19.9142 18.5 19.5 18.5H4.5C4.08579 18.5 3.75 18.1642 3.75 17.75Z" fill="black"/>
<path fill-rule="evenodd" clip-rule="evenodd" d="M3.75 11.75C3.75 11.3358 4.08579 11 4.5 11H19.5C19.9142 11 20.25 11.3358 20.25 11.75C20.25 12.1642 19.9142 12.5 19.5 12.5H4.5C4.08579 12.5 3.75 12.1642 3.75 11.75Z" fill="black"/>
<path fill-rule="evenodd" clip-rule="evenodd" d="M3.75 5.75C3.75 5.33579 4.08579 5 4.5 5H19.5C19.9142 5 20.25 5.33579 20.25 5.75C20.25 6.16421 19.9142 6.5 19.5 6.5H4.5C4.08579 6.5 3.75 6.16421 3.75 5.75Z" fill="black"/>
</svg>
