<svg width="16" height="17" viewBox="0 0 16 17" fill="none" xmlns="http://www.w3.org/2000/svg">
<path d="M11.7422 10.4484C12.5329 9.37179 13 8.04269 13 6.60449C13 3.01464 10.0899 0.104492 6.5 0.104492C2.91015 0.104492 0 3.01464 0 6.60449C0 10.1943 2.91015 13.1045 6.5 13.1045C7.93858 13.1045 9.26801 12.6372 10.3448 11.846L10.3439 11.8467C10.3734 11.8866 10.4062 11.9249 10.4424 11.9611L14.2929 15.8116C14.6834 16.2021 15.3166 16.2021 15.7071 15.8116C16.0976 15.4211 16.0976 14.7879 15.7071 14.3974L11.8566 10.5469C11.8204 10.5107 11.7822 10.4779 11.7422 10.4484ZM12 6.60449C12 9.64206 9.53757 12.1045 6.5 12.1045C3.46243 12.1045 1 9.64206 1 6.60449C1 3.56693 3.46243 1.10449 6.5 1.10449C9.53757 1.10449 12 3.56693 12 6.60449Z" fill="#090073"/>
</svg>
